<svg xmlns="http://www.w3.org/2000/svg" version="1.1" xmlns:xlink="http://www.w3.org/1999/xlink" width="111" height="104"><svg width="111" height="104" viewBox="0 0 111 104" fill="none" xmlns="http://www.w3.org/2000/svg">
<rect width="111" height="104" fill="#2D2D2D"></rect>
<path d="M56.3531 71.0199L70.4531 51.5799L56.7731 32.3799H68.2931L76.2731 43.8999L84.3131 32.3799H95.8332L82.1532 51.5799L96.2532 71.0199H84.6132L76.2731 59.3199L67.9931 71.0199H56.3531Z" fill="white"></path>
<path d="M32.5069 71.6199C28.9069 71.6199 25.7669 71.0399 23.0869 69.8799C20.4469 68.7199 18.3869 66.9999 16.9069 64.7199C15.4669 62.4399 14.7469 59.6399 14.7469 56.3199V32.3799H24.4069V55.4199C24.4069 58.0999 25.1069 60.0999 26.5069 61.4199C27.9069 62.7399 29.9069 63.3999 32.5069 63.3999C35.1069 63.3999 37.1069 62.7399 38.507 61.4199C39.907 60.0999 40.6069 58.0999 40.6069 55.4199V32.3799H50.2669V56.3199C50.2669 59.6399 49.527 62.4399 48.047 64.7199C46.607 66.9999 44.5469 68.7199 41.8669 69.8799C39.2269 71.0399 36.1069 71.6199 32.5069 71.6199Z" fill="white"></path>
</svg><style>@media (prefers-color-scheme: light) { :root { filter: none; } }
@media (prefers-color-scheme: dark) { :root { filter: none; } }
</style></svg>